<mxfile host="65bd71144e">
    <diagram id="7kWsD1gug8fiXAqPJ8Pf" name="Attack">
        <mxGraphModel dx="640" dy="1648" grid="1" gridSize="10" guides="1" tooltips="1" connect="1" arrows="1" fold="1" page="1" pageScale="1" pageWidth="850" pageHeight="1100" math="0" shadow="0">
            <root>
                <mxCell id="0"/>
                <mxCell id="1" parent="0"/>
                <mxCell id="2" value="Attack" style="rounded=1;whiteSpace=wrap;html=1;" vertex="1" parent="1">
                    <mxGeometry x="100" y="470" width="120" height="60" as="geometry"/>
                </mxCell>
                <mxCell id="26" value="Skills" style="swimlane;childLayout=stackLayout;resizeParent=1;resizeParentMax=0;startSize=20;html=1;rounded=0;glass=0;fontColor=#FFFFFF;" vertex="1" parent="1">
                    <mxGeometry x="210.00000000000045" y="-430" width="360" height="480" as="geometry"/>
                </mxCell>
                <mxCell id="27" value="Attack" style="swimlane;startSize=20;html=1;rounded=0;glass=0;fontColor=#FFFFFF;" vertex="1" parent="26">
                    <mxGeometry y="20" width="120" height="460" as="geometry"/>
                </mxCell>
                <mxCell id="28" value="Defence" style="swimlane;startSize=20;html=1;rounded=0;glass=0;fontColor=#FFFFFF;" vertex="1" parent="26">
                    <mxGeometry x="120" y="20" width="120" height="460" as="geometry"/>
                </mxCell>
                <mxCell id="29" value="Other" style="swimlane;startSize=20;html=1;rounded=0;glass=0;fontColor=#FFFFFF;" vertex="1" parent="26">
                    <mxGeometry x="240" y="20" width="120" height="460" as="geometry"/>
                </mxCell>
                <mxCell id="30" value="Has Shield" style="whiteSpace=wrap;html=1;shape=partialRectangle;top=0;left=0;bottom=1;right=0;points=[[0,1],[1,1]];fillColor=none;align=center;verticalAlign=bottom;routingCenterY=0.5;snapToPoint=1;recursiveResize=0;autosize=1;treeFolding=1;treeMoving=1;newEdgeStyle={&quot;edgeStyle&quot;:&quot;entityRelationEdgeStyle&quot;,&quot;startArrow&quot;:&quot;none&quot;,&quot;endArrow&quot;:&quot;none&quot;,&quot;segment&quot;:10,&quot;curved&quot;:1,&quot;sourcePerimeterSpacing&quot;:0,&quot;targetPerimeterSpacing&quot;:0};rounded=0;glass=0;fontColor=#FFFFFF;" vertex="1" parent="1">
                    <mxGeometry x="250" y="420" width="100" height="30" as="geometry"/>
                </mxCell>
                <mxCell id="31" value="" style="edgeStyle=entityRelationEdgeStyle;startArrow=none;endArrow=none;segment=10;curved=1;sourcePerimeterSpacing=0;targetPerimeterSpacing=0;fontColor=#FFFFFF;" edge="1" target="30" parent="1">
                    <mxGeometry relative="1" as="geometry">
                        <mxPoint x="220" y="500" as="sourcePoint"/>
                    </mxGeometry>
                </mxCell>
                <mxCell id="36" value="No Shield&lt;br&gt;" style="whiteSpace=wrap;html=1;shape=partialRectangle;top=0;left=0;bottom=1;right=0;points=[[0,1],[1,1]];fillColor=none;align=center;verticalAlign=bottom;routingCenterY=0.5;snapToPoint=1;recursiveResize=0;autosize=1;treeFolding=1;treeMoving=1;newEdgeStyle={&quot;edgeStyle&quot;:&quot;entityRelationEdgeStyle&quot;,&quot;startArrow&quot;:&quot;none&quot;,&quot;endArrow&quot;:&quot;none&quot;,&quot;segment&quot;:10,&quot;curved&quot;:1,&quot;sourcePerimeterSpacing&quot;:0,&quot;targetPerimeterSpacing&quot;:0};rounded=0;glass=0;fontColor=#FFFFFF;" vertex="1" parent="1">
                    <mxGeometry x="260" y="600" width="90" height="30" as="geometry"/>
                </mxCell>
                <mxCell id="37" value="" style="edgeStyle=entityRelationEdgeStyle;startArrow=none;endArrow=none;segment=10;curved=1;sourcePerimeterSpacing=0;targetPerimeterSpacing=0;fontColor=#FFFFFF;exitX=1;exitY=0.5;exitDx=0;exitDy=0;" edge="1" target="36" parent="1" source="2">
                    <mxGeometry relative="1" as="geometry">
                        <mxPoint x="310" y="610" as="sourcePoint"/>
                    </mxGeometry>
                </mxCell>
                <mxCell id="39" style="edgeStyle=none;html=1;fontColor=#FFFFFF;" edge="1" parent="1">
                    <mxGeometry relative="1" as="geometry">
                        <mxPoint x="580" y="350" as="targetPoint"/>
                        <mxPoint x="470" y="450" as="sourcePoint"/>
                    </mxGeometry>
                </mxCell>
                <mxCell id="38" value="Surrounding projectiles &amp;lt; N" style="rounded=1;whiteSpace=wrap;html=1;glass=0;fontColor=#FFFFFF;" vertex="1" parent="1">
                    <mxGeometry x="350" y="420" width="120" height="60" as="geometry"/>
                </mxCell>
                <mxCell id="42" style="edgeStyle=none;html=1;exitX=1;exitY=0.5;exitDx=0;exitDy=0;entryX=0;entryY=0.5;entryDx=0;entryDy=0;fontColor=#FFFFFF;" edge="1" parent="1" source="40" target="41">
                    <mxGeometry relative="1" as="geometry">
                        <Array as="points">
                            <mxPoint x="830" y="340"/>
                        </Array>
                    </mxGeometry>
                </mxCell>
                <mxCell id="46" style="edgeStyle=none;html=1;exitX=1;exitY=0.5;exitDx=0;exitDy=0;entryX=0;entryY=0.5;entryDx=0;entryDy=0;fontColor=#FFFFFF;" edge="1" parent="1" source="40" target="43">
                    <mxGeometry relative="1" as="geometry"/>
                </mxCell>
                <mxCell id="40" value="IF MANA &amp;gt; N" style="rhombus;whiteSpace=wrap;html=1;rounded=1;glass=0;fillColor=#78106A;shadow=0;arcSize=0;" vertex="1" parent="1">
                    <mxGeometry x="580" y="310" width="190" height="80" as="geometry"/>
                </mxCell>
                <mxCell id="41" value="Fire shield at enemy" style="rounded=1;whiteSpace=wrap;html=1;glass=0;fontColor=#FFFFFF;" vertex="1" parent="1">
                    <mxGeometry x="880" y="300" width="120" height="60" as="geometry"/>
                </mxCell>
                <mxCell id="43" value="&lt;font color=&quot;#ff0000&quot;&gt;ELSE&lt;/font&gt; cancel shield" style="rounded=1;whiteSpace=wrap;html=1;glass=0;fontColor=#FFFFFF;" vertex="1" parent="1">
                    <mxGeometry x="870" y="420" width="120" height="60" as="geometry"/>
                </mxCell>
                <mxCell id="49" value="Cast offensive skill" style="rounded=1;whiteSpace=wrap;html=1;glass=0;fontColor=#FFFFFF;" vertex="1" parent="1">
                    <mxGeometry x="350" y="600" width="120" height="60" as="geometry"/>
                </mxCell>
            </root>
        </mxGraphModel>
    </diagram>
</mxfile>